<mxfile host="app.diagrams.net" modified="2022-10-24T13:56:38.504Z" agent="5.0 (iPad; CPU OS 15_7 like Mac OS X) AppleWebKit/605.1.15 (KHTML, like Gecko) EdgiOS/106.0.1370.52 Version/15.0 Mobile/15E148 Safari/604.1" etag="XAkgUMidjjHIqWNAxeHI" version="20.5.1" type="github">
  <diagram id="YJMMe3pgU7K5GUkVMphv" name="第 1 页">
    <mxGraphModel dx="526" dy="486" grid="1" gridSize="10" guides="1" tooltips="1" connect="1" arrows="1" fold="1" page="1" pageScale="1" pageWidth="827" pageHeight="1169" math="0" shadow="0">
      <root>
        <mxCell id="0" />
        <mxCell id="1" parent="0" />
        <mxCell id="217xOFlQK4rFVKzRzgj2-1" value="Iujnnn&amp;nbsp;" style="ellipse;whiteSpace=wrap;html=1;" vertex="1" parent="1">
          <mxGeometry x="220" y="220" width="120" height="80" as="geometry" />
        </mxCell>
      </root>
    </mxGraphModel>
  </diagram>
</mxfile>
